PathFileType	4	(X/Y/Z)	AB06\squats_1.trc
DataRate	CameraRate	NumFrames	NumMarkers	Units	OrigDataRate	OrigDataStartFrame	OrigNumFrames
200.000000	200.000000	6	35	mm	200.000000	147	392
Frame#	Time	C7			LSHO			LASI			RASI			LPSI			RPSI			LGTR			RGTR			LTHC			LTHL			LTHR			LKNE			LMKNE			LSHC			LSHL			LSHR			LANK			LMANK			LMT1			LMT5			LCAL			RTHC			RTHL			RTHR			RKNE			RMKNE			RSHC			RSHL			RSHR			RANK			RMANK			RMT1			RMT5			RCAL			STRN			
		X1	Y1	Z1	X2	Y2	Z2	X3	Y3	Z3	X4	Y4	Z4	X5	Y5	Z5	X6	Y6	Z6	X7	Y7	Z7	X8	Y8	Z8	X9	Y9	Z9	X10	Y10	Z10	X11	Y11	Z11	X12	Y12	Z12	X13	Y13	Z13	X14	Y14	Z14	X15	Y15	Z15	X16	Y16	Z16	X17	Y17	Z17	X18	Y18	Z18	X19	Y19	Z19	X20	Y20	Z20	X21	Y21	Z21	X22	Y22	Z22	X23	Y23	Z23	X24	Y24	Z24	X25	Y25	Z25	X26	Y26	Z26	X27	Y27	Z27	X28	Y28	Z28	X29	Y29	Z29	X30	Y30	Z30	X31	Y31	Z31	X32	Y32	Z32	X33	Y33	Z33	X34	Y34	Z34	X35	Y35	Z35	

148	45.64	-3647.579688442329	1100.838934440636	2499.111440266346	-3707.952817164004	1000.834988056487	2646.801710016293	-3398.114675423969	651.2997178545261	2620.446914491095	-3397.474682075305	661.4049228189986	2360.212487131268	-3216.62692450037	687.0880093466195	2538.520957267209	-3218.219699351424	693.8732793505692	2443.809003398956	-3323.75433290094	638.2687313244129	2691.119227560617	-3340.621250430663	670.7352541808528	2317.396503790652	-3403.393811856217	603.3648430578863	2722.940878119122	-3539.838438231275	625.6396635202475	2676.888643668382	-3482.180458719559	459.6965299382663	2741.64465875755	-3697.192350952233	486.5206503201005	2835.901945313517	-3750.340361621288	473.2231192265475	2727.030352289985	-3606.502809123085	429.1271667860363	2819.347540363593	-3582.92277987042	201.3249606998534	2767.82817616262	-3497.392530153403	248.6672955939424	2735.988058500864	-3464.096775922102	104.2564337518833	2767.568344497999	-3496.729874758264	113.4208607480578	2685.649825464396	-3618.770854337282	49.06770869831877	2714.150303558175	-3568.13195169866	51.08782245143863	2828.156676474773	-3394.594268431421	80.20666390613277	2715.865054158073	-3528.189993715049	459.3806025076092	2252.893263451677	-3450.958029717898	587.3277908069575	2244.559850690635	-3558.251818215515	609.297802560911	2354.966137166637	-3725.184885307308	490.3312728247237	2191.748705790264	-3762.78714435937	474.2834505558066	2303.209302295279	-3523.578808124532	249.1279096848008	2272.757340185402	-3649.138591947749	424.7948170667166	2185.566402079614	-3610.643556649015	200.0780231716563	2251.299355635881	-3494.968905224383	109.387502440653	2236.061015344788	-3529.222542705807	115.491070207228	2320.782359349628	-3643.461827305588	52.00340927163852	2298.995570029194	-3608.940610364589	37.76486544101223	2180.340969390645	-3429.144409114562	80.48650383774029	2279.945349765143	-3632.023537137848	794.2043673053838	2499.021689819538	
149	45.645	-3647.57048680849	1097.403882394197	2498.952523503899	-3707.849671599266	997.374632966517	2646.672450358273	-3397.477034434205	648.5960481152385	2620.436800859053	-3396.955399371022	658.7107520395592	2360.113844351522	-3215.934188295725	684.0524754982359	2538.336727130154	-3217.605984253836	690.877105788833	2443.692232475772	-3322.976608158801	635.7139931400831	2690.988888127381	-3340.091216877334	668.1801042213928	2317.359953191432	-3402.613419360626	601.3555726635767	2722.709563078389	-3538.876506004812	624.3181632069731	2676.546284511067	-3482.086792952053	458.2092988317904	2741.689068696268	-3696.92501543553	486.5002642620548	2835.971601596489	-3750.273326865984	473.2442339208472	2727.053721097298	-3606.347535423063	429.0610049620429	2819.391828363198	-3582.894885921901	201.3076579439517	2767.845335872922	-3497.351334676277	248.6462381498	2736.022730533623	-3464.082900730989	104.2412730203348	2767.544369222635	-3496.736741107872	113.3993087167898	2685.637206481902	-3618.773174432653	49.07135719096783	2714.162344281101	-3568.114206689193	51.09510669164403	2828.159626840326	-3394.597007637147	80.2081639999861	2715.868771338573	-3528.445743122862	458.0672809988034	2252.993573123386	-3450.610699504658	585.6114439304442	2244.764947578376	-3557.648417195222	607.924402514851	2355.446061325578	-3725.392034516576	490.195434515645	2192.166549107832	-3762.962084289972	474.0884836596504	2303.721326100543	-3523.691169069981	249.0714823022961	2272.954471172343	-3649.427767585809	424.6302077020048	2185.831164059146	-3610.733099429924	199.96819052822	2251.560155565665	-3495.001453246679	109.368227724264	2236.17659212266	-3529.238952819791	115.4192252285521	2320.899377395403	-3643.486156574501	51.99976645437705	2299.007518790785	-3608.930206652346	37.79770612683942	2180.349680374829	-3429.162818887435	80.47231453880271	2279.982982843053	-3631.577749477246	790.8285051330657	2498.972782089763	
150	45.65	-3647.55827174544	1094.002810600226	2498.797003551602	-3707.746249020399	993.9486780608067	2646.544346200141	-3396.846404607373	645.9273299065277	2620.438619939699	-3396.449967630307	656.0482493149464	2360.017754636679	-3215.250464028522	681.0400839757742	2538.15457929374	-3217.002576742095	687.9056122486982	2443.578769655418	-3322.203554127833	633.1825033618961	2690.858178720949	-3339.571503905608	665.6480290035702	2317.32785914972	-3401.836291703734	599.3628519909818	2722.484881072745	-3537.91791874674	623.0079884053272	2676.215185233231	-3481.987088018015	456.7376658162439	2741.736321359286	-3696.643849730204	486.4869129563569	2836.047752649391	-3750.196055395339	473.2735568376802	2727.087553047219	-3606.175094651423	428.9975412785534	2819.442924041663	-3582.861487816536	201.2913950021552	2767.866936694258	-3497.304491469101	248.6260939953987	2736.063159924705	-3464.067125268954	104.2253416017556	2767.523003689065	-3496.741760409333	113.3789091875025	2685.626580086784	-3618.774289771211	49.07517084605069	2714.175598399456	-3568.096216560058	51.10126294966172	2828.164017206244	-3394.599784926036	80.2072061052735	2715.871295588655	-3528.692330237791	456.7685069518398	2253.089344052485	-3450.260736884983	583.9115163241956	2244.968287829404	-3557.050030165339	606.5615574215029	2355.917733840065	-3725.585095709024	490.0655806711532	2192.57196826348	-3763.1254908875	473.9032182235186	2304.215966735067	-3523.797831846598	249.0160137524108	2273.149640148415	-3649.701090749994	424.4694061158752	2186.083191260946	-3610.813648270898	199.8636841196945	2251.816385798331	-3495.031807900975	109.3478865262519	2236.289071469547	-3529.252209089255	115.3483972233717	2321.011932234322	-3643.508881925961	51.99545018162267	2299.016333925466	-3608.919632424492	37.82911481799854	2180.35689616152	-3429.180766016354	80.45846010435369	2280.019269050853	-3631.141210907548	787.4823288687593	2498.924453982569	
151	45.655	-3647.543112229398	1090.637534636768	2498.645471715297	-3707.642388114125	990.5584393184547	2646.417688320631	-3396.223745783943	643.294164153062	2620.451273482808	-3395.95889251258	653.4190755457068	2359.924417914159	-3214.576828838369	678.0528100118973	2537.974527912978	-3216.410306011327	684.9603163960351	2443.468595168861	-3321.436312169346	630.6761004239028	2690.727104908134	-3339.062031542329	663.1398901379187	2317.299992489453	-3401.062767314483	597.3882432657522	2722.266964041449	-3536.963127947927	621.7097017820408	2675.895873154904	-3481.881262466613	455.2826540196203	2741.787378705546	-3696.349247010937	486.4804367760846	2836.131420856621	-3750.108653246427	473.3107336479562	2727.133346883444	-3605.985668051224	428.936990660317	2819.501942788696	-3582.822662253891	201.2762014008649	2767.893306380679	-3497.252126795951	248.6067576169428	2736.10912928302	-3464.049409166115	104.2086761864714	2767.504335048601	-3496.744918954026	113.3596125492815	2685.617991901153	-3618.774035285196	49.07920175393599	2714.19022188471	-3568.078015759272	51.10619878423259	2828.169874727754	-3394.602644170689	80.20372872121841	2715.872304656218	-3528.928807218406	455.48470957892	2253.178800694711	-3449.907314942029	582.2284547879974	2245.168568276504	-3556.455880779536	605.2096952724454	2356.378853580442	-3725.762477637511	489.9416667885293	2192.961746228745	-3763.276955608836	473.7280787772539	2304.689983423831	-3523.898502164343	248.9614978986464	2273.341404057745	-3649.956878722406	424.3124239359062	2186.320266648427	-3610.885245668095	199.764480994409	2252.066320239262	-3495.059707550297	109.3266513718823	2236.398071854575	-3529.262491916653	115.2782382377028	2321.119741106782	-3643.529887777549	51.99063014663484	2299.021538804808	-3608.908678394888	37.85889341594388	2180.362630547148	-3429.198172262034	80.44483157508647	2280.054281007275	-3630.715930163994	784.1668946015448	2498.876518171571	
152	45.66	-3647.525063542736	1087.309929527315	2498.498484091048	-3707.537838491978	987.2053108198118	2646.292822032967	-3395.610076054337	640.6971701956098	2620.473536528805	-3395.482551881075	650.8248846422072	2359.834042440943	-3213.914366871027	675.0927119082462	2537.796569787321	-3215.829961296936	682.0427553825507	2443.36163637738	-3320.676153520175	628.1967040417511	2690.595654115091	-3338.562690217232	660.6565925503968	2317.276030571875	-3400.293304671721	595.4333706487105	2722.055867401643	-3536.012662912947	620.4238745939781	2675.588748665715	-3481.769319025792	453.8453244752014	2741.843158742988	-3696.041703734852	486.4806418448038	2836.223510585638	-3750.011377779561	473.3554048254082	2727.192360519156	-3605.779594014115	428.8795769187848	2819.569823711275	-3582.778520056742	201.2621212193438	2767.924708638529	-3497.194396741816	248.5881308536518	2736.160354223304	-3464.029702490252	104.191337247208	2767.488446642506	-3496.746200913244	113.3413734178481	2685.611471978114	-3618.772263357123	49.08350000113266	2714.206355622613	-3568.059635510679	51.10983509399779	2828.17721541085	-3394.605622348809	80.19773508082406	2715.871544769188	-3529.154310924781	454.2163383562545	2253.260266610507	-3449.549698299702	580.5626913966184	2245.364499551888	-3555.865194275049	603.8693033936351	2356.82722620406	-3725.922689500124	489.8236741256229	2193.332897553062	-3763.416154749126	473.5634418954853	2305.140418328214	-3523.992926331402	248.9079392225625	2273.528333354375	-3650.193542478662	424.1592942340835	2186.540411651208	-3610.948005971822	199.6704770673923	2252.308306963057	-3495.084911394106	109.3047485727773	2236.503287832306	-3529.270014708541	115.2084279312846	2321.222592959013	-3643.549079744154	51.98547970104932	2299.022719326617	-3608.897130903849	37.88687770045801	2180.366922339717	-3429.214976373791	80.43133206499262	2280.088103127293	-3630.303770438898	780.8833800860301	2498.828832382223	
153	45.665	-3647.504164656499	1084.021915342307	2498.356562088309	-3707.432264377798	983.8907595507216	2646.170148457708	-3395.006452481859	638.1369926892722	2620.504084358537	-3395.021191048367	648.2672941570063	2359.746838543831	-3213.264149674612	672.1619020969241	2537.620682866417	-3215.262274707008	679.1544686805709	2443.257765356022	-3319.924453095593	625.7462914095613	2690.463801213349	-3338.073347825703	658.1990741870976	2317.255562804662	-3399.528483958725	593.4998894202597	2721.851573837482	-3535.06713255839	619.1510834090838	2675.294085432364	-3481.651350336786	452.4267548466447	2741.904517729427	-3695.721814930962	486.4872924234402	2836.324791209231	-3749.904632336456	473.4072036189976	2727.265600008026	-3605.557371617928	428.8255256795225	2819.647324566434	-3582.729199245614	201.2492079828232	2767.961348982958	-3497.131487370854	248.5701222803043	2736.216493936852	-3464.007949257889	104.1734060847214	2767.475416547203	-3496.745592750374	113.3241562420861	2685.607034029897	-3618.768848144117	49.08811204769211	2714.224121859804	-3568.041101590891	51.11210917605248	2828.186044284358	-3394.608748599438	80.18929095112267	2715.868837389826	-3529.368070389959	452.9638629358263	2253.332167444566	-3449.187251740796	578.9146499003409	2245.554821214667	-3555.277227967894	602.5409276767665	2357.260784939157	-3726.064365831485	489.7116074789624	2193.682686120985	-3763.54285816402	473.4096267568544	2305.564604405247	-3524.080890604991	248.8553535291272	2273.709027197805	-3650.409623649935	424.0100647085611	2186.741877853854	-3611.00210709722	199.5814994757197	2252.540775246811	-3495.107202976489	109.2824452369156	2236.60448553483	-3529.27501647105	115.1386939964153	2321.320341838816	-3643.566383924791	51.98017141882271	2299.019528999751	-3608.884778632751	37.91294067016729	2180.369828644548	-3429.23113341949	80.41787770860701	2280.120827876501	-3629.906409117702	777.6330779037057	2498.78131043296	
